<svg width="14" height="7" viewBox="0 0 14 7" fill="none" xmlns="http://www.w3.org/2000/svg">
<path d="M6 4.5C5.7875 4.5 5.60938 4.42813 5.46562 4.28438C5.32187 4.14062 5.25 3.9625 5.25 3.75V0.75C5.25 0.5375 5.32187 0.359375 5.46562 0.215625C5.60938 0.071875 5.7875 0 6 0H8.25C8.4625 0 8.64062 0.071875 8.78438 0.215625C8.92813 0.359375 9 0.5375 9 0.75V3.75C9 3.9625 8.92813 4.14062 8.78438 4.28438C8.64062 4.42813 8.4625 4.5 8.25 4.5H6ZM6.375 3.375H7.875V1.125H6.375V3.375ZM0.75 4.5C0.5375 4.5 0.359375 4.42813 0.215625 4.28438C0.071875 4.14062 0 3.9625 0 3.75V0.75C0 0.5375 0.071875 0.359375 0.215625 0.215625C0.359375 0.071875 0.5375 0 0.75 0H3C3.2125 0 3.39062 0.071875 3.53437 0.215625C3.67812 0.359375 3.75 0.5375 3.75 0.75V1.5H2.625V1.125H1.125V3.375H2.625V3H3.75V3.75C3.75 3.9625 3.67812 4.14062 3.53437 4.28438C3.39062 4.42813 3.2125 4.5 3 4.5H0.75ZM10.5 6.75V4.875C10.5 4.6625 10.5719 4.48438 10.7156 4.34062C10.8594 4.19687 11.0375 4.125 11.25 4.125H12.75V3.375H10.5V2.25H13.125C13.3375 2.25 13.5156 2.32188 13.6594 2.46563C13.8031 2.60938 13.875 2.7875 13.875 3V4.125C13.875 4.3375 13.8031 4.51562 13.6594 4.65938C13.5156 4.80313 13.3375 4.875 13.125 4.875H11.625V5.625H13.875V6.75H10.5Z" fill="#0F5238"/>
</svg>
